<svg width="223" height="50" viewBox="0 0 223 50" fill="none" xmlns="http://www.w3.org/2000/svg">
<g clip-path="url(#clip0)">
<path d="M205.782 22.6804L202.09 24.134C201.486 22.5813 200.547 21.5903 198.868 21.5903C195.747 21.5903 193.733 24.8607 193.733 28.4616C193.733 31.4347 195.378 32.8883 197.559 32.8883C199.271 32.8883 200.412 31.9633 200.849 30.2785L200.882 30.1794H198.298L198.902 26.8759H205.313L205.044 28.5276C204.071 34.0115 201.453 36.3239 197.157 36.3239C193.129 36.3239 189.974 33.7141 189.974 28.9571C189.974 22.6474 193.901 18.0555 199.137 18.0555C202.762 18.0885 204.809 19.7403 205.782 22.6804ZM222.329 25.3893C222.329 31.3687 218.637 36.357 213.2 36.357C208.736 36.357 206.017 33.615 206.017 29.0892C206.017 23.1099 209.709 18.1216 215.147 18.1216C219.611 18.0885 222.329 20.8305 222.329 25.3893ZM218.537 25.8848C218.537 22.9447 216.925 21.6233 214.878 21.6233C212.092 21.6233 209.81 24.3982 209.81 28.5607C209.81 31.5008 211.421 32.8222 213.468 32.8222C216.254 32.8222 218.537 30.0472 218.537 25.8848ZM178.26 42.5015L177.522 42.1711L194.74 8.6405L195.478 9.00389L178.26 42.5015ZM80.2889 35.9275H75.2208L74.3146 30.741H65.6888L62.9031 35.9275H57.6L70.8576 12.6378H75.4893L80.2889 35.9275ZM73.4755 26.3143L72.7371 22.0858C72.5022 20.7314 72.3008 19.3108 72.2001 18.4519C71.8309 19.3108 71.1261 20.6653 70.3541 22.0858L68.0718 26.3143H73.4755ZM90.0894 11.6797L85.7262 35.9275H81.0273L84.9878 13.9922L90.0894 11.6797ZM104.119 25.1911C104.119 26.3143 103.918 27.4705 103.582 28.6928H93.0094C92.7409 31.0713 94.7212 31.9963 96.3322 31.9963C97.5405 31.9963 98.7152 31.6329 99.9235 30.8401L102.206 34.0445C100.058 35.6632 98.0104 36.3239 95.8287 36.3239C91.2306 36.3239 88.3105 33.4499 88.3105 28.7258C88.3105 22.7465 92.4388 18.1216 97.6076 18.1216C102.105 18.0885 104.119 21.2929 104.119 25.1911ZM99.6885 25.2241C99.8564 23.5724 99.0508 22.0858 96.9363 22.0858C95.2246 22.0858 94.1841 23.4402 93.6471 25.2241H99.6885ZM131.104 23.6384C131.104 24.3982 131.037 25.1911 130.869 26.1161L129.09 35.9605H124.425L126.136 26.4795C126.237 25.8518 126.304 25.2902 126.304 24.8277C126.304 23.0438 125.331 22.4492 123.787 22.4492C122.075 22.4492 120.934 23.6384 120.464 26.4134L118.753 35.9605H114.02L115.732 26.5125C115.833 25.8848 115.9 25.3563 115.9 24.8938C115.9 23.0768 114.926 22.4822 113.382 22.4822C111.671 22.4822 110.53 23.6715 110.06 26.4464L108.348 35.9936H103.649L106.77 18.518H111.469L111.268 19.6742C112.107 18.9144 113.382 18.1546 115.128 18.1546C117.41 18.1546 118.887 18.8814 119.927 20.368C120.934 19.5421 122.814 18.1546 125.633 18.1546C129.258 18.0885 131.104 20.0706 131.104 23.6384ZM147.416 23.2751C147.416 23.7375 147.382 24.2 147.281 24.7286L145.268 35.8945H140.569L140.804 34.7382C139.897 35.5641 138.622 36.2578 136.944 36.2578C133.789 36.2578 130.902 34.6391 130.902 30.8401C130.902 26.9089 133.789 24.2661 138.286 24.2661C139.931 24.2661 141.878 24.6295 142.515 24.9598L142.616 24.2661C142.65 24.0679 142.65 23.8697 142.65 23.7045C142.65 22.4822 141.811 21.8876 139.562 21.8876C138.052 21.8876 136.575 22.284 135.501 22.7795L134.259 19.5091C135.534 18.7823 137.917 18.0885 140.166 18.0885C144.429 18.0885 147.416 19.6412 147.416 23.2751ZM141.911 28.6267C141.173 28.2303 140.065 27.9 138.555 27.9C136.675 27.9 135.769 28.9901 135.769 30.4106C135.769 31.732 136.642 32.4258 138.354 32.4258C139.83 32.4258 140.972 31.5669 141.509 30.8401L141.911 28.6267ZM164.6 23.5063C164.6 24.2331 164.533 25.1911 164.365 26.083L162.586 35.9275H157.887L159.599 26.4795C159.7 25.8848 159.733 25.3893 159.733 24.9598C159.733 23.2751 158.928 22.4161 157.25 22.4161C155.37 22.4161 154.162 23.4733 153.625 26.3804L151.913 35.9275H147.214L150.336 18.4519H155.035L154.833 19.6082C155.739 18.7823 157.048 18.0885 158.894 18.0885C162.754 18.0885 164.6 20.0376 164.6 23.5063ZM180.912 23.2751C180.912 23.7375 180.878 24.2 180.778 24.7286L178.764 35.8945H174.065L174.3 34.7382C173.394 35.5641 172.118 36.2578 170.44 36.2578C167.285 36.2578 164.399 34.6391 164.399 30.8401C164.399 26.9089 167.285 24.2661 171.783 24.2661C173.427 24.2661 175.374 24.6295 176.012 24.9598L176.112 24.2661C176.146 24.0679 176.146 23.8697 176.146 23.7045C176.146 22.4822 175.307 21.8876 173.058 21.8876C171.548 21.8876 170.071 22.284 168.997 22.7795L167.755 19.5091C169.031 18.7823 171.414 18.0885 173.662 18.0885C177.891 18.0885 180.912 19.6412 180.912 23.2751ZM175.374 28.6267C174.636 28.2303 173.528 27.9 172.018 27.9C170.138 27.9 169.232 28.9901 169.232 30.4106C169.232 31.732 170.105 32.4258 171.816 32.4258C173.293 32.4258 174.434 31.5669 174.971 30.8401L175.374 28.6267Z" fill="#48A19A"/>
</g>
<path d="M28.8963 33.5877C28.8963 36.0076 26.6491 37.9919 23.8665 37.9919C21.0839 37.9919 18.8362 36.0076 18.8362 33.5877C18.8362 31.1678 21.0839 29.1835 23.8665 29.1835C23.92 29.1835 23.9732 29.1835 24.0802 29.1835L18.9433 22.0208H15.5722C15.2511 24.1503 13.1108 25.7957 10.5957 25.7957C7.81311 25.7957 5.56541 23.8113 5.56541 21.3915C5.56541 18.9716 7.81311 16.9873 10.5957 16.9873C12.8432 16.9873 14.7696 18.294 15.4118 20.1331H20.1207L27.6656 30.6839C28.4148 31.4582 28.8963 32.4746 28.8963 33.5877ZM28.8963 9.2437C28.8963 11.6636 26.6491 13.6479 23.8665 13.6479H23.7594L28.0936 19.2136H25.4718L19.3713 11.2765L19.4251 11.228C19.0505 10.6473 18.89 9.96966 18.89 9.2437C18.89 6.82383 21.1372 4.83973 23.9198 4.83973C26.6489 4.83973 28.8963 6.82383 28.8963 9.2437ZM48 30.6839V21.4884V21.4399C48 16.3098 43.2911 12.196 37.4048 12.196C36.067 12.196 34.8363 12.3897 33.659 12.7768C34.1406 11.7121 34.4617 10.5021 34.4617 9.29215C34.4617 4.16203 29.6992 0 23.8665 0C18.0337 0 13.2713 4.16203 13.2713 9.29215C13.2713 10.5021 13.5385 11.6152 14.0201 12.68C12.9499 12.3412 11.8265 12.196 10.5957 12.196C4.76295 12.196 0 16.3583 0 21.4884C0 26.6185 4.76295 30.7805 10.5957 30.7805C11.773 30.7805 12.9499 30.5869 14.0201 30.2965C13.5385 31.3613 13.2713 32.4744 13.2713 33.6844C13.2713 38.8145 18.0337 42.9767 23.8665 42.9767C29.6992 42.9767 34.4617 38.8145 34.4617 33.6844C34.4617 32.426 34.1941 31.2646 33.659 30.1999C34.8363 30.5871 36.067 30.7805 37.4048 30.7805C38.368 30.7805 39.3313 30.6839 40.1875 30.4419V25.1666C39.3848 25.6506 38.4215 25.8926 37.4048 25.8926C34.6222 25.8926 32.3745 23.9082 32.3745 21.4884C32.3745 19.0685 34.6222 17.0842 37.4048 17.0842C40.1874 17.0842 42.4351 19.0685 42.4351 21.4884V21.5368H42.3813V30.7323H48V30.6839Z" fill="#48A19A"/>
<defs>
<clipPath id="clip0">
<rect width="165.333" height="48" fill="white" transform="translate(57.6 1.25586)"/>
</clipPath>
</defs>
</svg>
